<?xml version="1.0" encoding="UTF-8" standalone="no" ?>
<!DOCTYPE svg PUBLIC "-//W3C//DTD SVG 1.1//EN" "http://www.w3.org/Graphics/SVG/1.1/DTD/svg11.dtd">
<svg xmlns="http://www.w3.org/2000/svg" xmlns:xlink="http://www.w3.org/1999/xlink" version="1.1" width="1280" height="1024" viewBox="0 0 1280 1024" xml:space="preserve">
<desc>Created with Fabric.js 5.3.0</desc>
<defs>
</defs>
<g transform="matrix(1 0 0 1 640 512)" id="background-logo"  >
<rect style="stroke: none; stroke-width: 0; stroke-dasharray: none; stroke-linecap: butt; stroke-dashoffset: 0; stroke-linejoin: miter; stroke-miterlimit: 4; fill: rgb(255,255,255); fill-opacity: 0; fill-rule: nonzero; opacity: 1;"  paint-order="stroke"  x="-640" y="-512" rx="0" ry="0" width="1280" height="1024" />
</g>
<g transform="matrix(1.9211538461538462 0 0 1.9211538461538462 640 407.5099923406566)" id="logo-logo"  >
<g style=""  paint-order="stroke"   >
		<g transform="matrix(1.0311687150837987 0 0 1.0311687150837987 40.937397988826774 9.332076871508377)"  >
<linearGradient id="SVGID_1_488408" gradientUnits="userSpaceOnUse" gradientTransform="matrix(1 0 0 1 0 0)"  x1="148.6788" y1="107.965" x2="224.724" y2="156.2353">
<stop offset="0%" style="stop-color:rgb(1,38,90);stop-opacity: 1"/>
<stop offset="100%" style="stop-color:rgb(168,222,242);stop-opacity: 1"/>
</linearGradient>
<path style="stroke: none; stroke-width: 1; stroke-dasharray: none; stroke-linecap: butt; stroke-dashoffset: 0; stroke-linejoin: miter; stroke-miterlimit: 4; fill: url(#SVGID_1_488408); fill-rule: nonzero; opacity: 1;"  paint-order="stroke"  transform=" translate(-189.7, -134.05)" d="M 152.8 214 C 193.5 197.4 220.5 157.6 220.5 113.2 L 220.5 89.5 C 220.5 77.4 222.6 65.4 226.6 54.1 L 226.6 54.1 C 222.1 58.5 217.7 63.1 213.29999999999998 67.9 C 205.2 76.80000000000001 197.29999999999998 86.4 189.6 96.7 C 179.4 110.3 172.2 126 168.6 142.6 L 152.8 214 z" stroke-linecap="round" />
</g>
		<g transform="matrix(1.0311687150837987 0 0 1.0311687150837987 -10.569479329608953 -0.05155843575420249)"  >
<linearGradient id="SVGID_2_488409" gradientUnits="userSpaceOnUse" gradientTransform="matrix(1 0 0 1 0 0)"  x1="101.185" y1="41.0494" x2="190.0563" y2="185.9998">
<stop offset="0%" style="stop-color:rgb(168,222,242);stop-opacity: 1"/>
<stop offset="100%" style="stop-color:rgb(38,107,181);stop-opacity: 1"/>
</linearGradient>
<path style="stroke: none; stroke-width: 1; stroke-dasharray: none; stroke-linecap: butt; stroke-dashoffset: 0; stroke-linejoin: miter; stroke-miterlimit: 4; fill: url(#SVGID_2_488409); fill-rule: nonzero; opacity: 1;"  paint-order="stroke"  transform=" translate(-139.75, -124.94999999999999)" d="M 73.4 71.2 L 73.4 113.1 C 73.4 157.5 100.30000000000001 197.3 141.10000000000002 213.89999999999998 L 121 123 C 120.7 121.5 118.7 121.1 117.8 122.3 L 108.5 134.1 C 106.3 136.9 106.9 141.2 110.1 145 L 126.19999999999999 162.2 L 129.29999999999998 177.2 C 129.29999999999998 177.2 104.09999999999998 154.7 98.49999999999999 149.6 C 92.49999999999999 144.1 87.09999999999998 136.6 94.09999999999998 127.69999999999999 C 98.59999999999998 121.99999999999999 111.69999999999999 106.49999999999999 117.99999999999997 99.1 C 119.89999999999998 96.8 122.99999999999997 96 125.79999999999997 97 C 128.99999999999997 98.2 133.69999999999996 99.4 138.59999999999997 99.5 L 142.39999999999998 107.7 L 137.89999999999998 146.7 L 146.7 157 L 155.5 146.7 L 151 107.69999999999999 L 154.8 99.49999999999999 C 155.4 99.49999999999999 156.10000000000002 99.49999999999999 156.70000000000002 99.39999999999999 C 164.3 98.8 171.50000000000003 95.49999999999999 177.20000000000002 90.39999999999999 L 206.10000000000002 64.6 L 146.9 36 L 73.4 71.2 z M 162.7 76.7 C 162.7 85.4 155.6 92.5 146.89999999999998 92.5 C 138.2 92.5 131.09999999999997 85.4 131.09999999999997 76.7 C 131.09999999999997 68 138.19999999999996 60.900000000000006 146.89999999999998 60.900000000000006 C 155.7 60.9 162.7 68 162.7 76.7 z" stroke-linecap="round" />
</g>
</g>
</g>
</svg>